HIERARCHY
ROOT Hips
{
	OFFSET 0.000000 0.000000 0.000000
	CHANNELS 6 Xposition Yposition Zposition Xrotation Yrotation Zrotation
	JOINT LeftUpLeg
	{
		OFFSET 9.269806 0.000000 0.000000
		CHANNELS 3 Xrotation Yrotation Zrotation
		JOINT LeftLeg
		{
			OFFSET 0.000000 -39.892732 0.000000
			CHANNELS 3 Xrotation Yrotation Zrotation
			JOINT LeftFoot
			{
				OFFSET 0.000000 -39.163422 0.000000
				CHANNELS 3 Xrotation Yrotation Zrotation
				JOINT LeftToeBase
				{
					OFFSET 0.000000 -3.899992 14.555038
					CHANNELS 3 Xrotation Yrotation Zrotation
					End Site
					{
						OFFSET 0.000000 0.000000 7.499985
					}
				}
			}
		}
	}
	JOINT RightUpLeg
	{
		OFFSET -9.269806 0.000000 0.000000
		CHANNELS 3 Xrotation Yrotation Zrotation
		JOINT RightLeg
		{
			OFFSET 0.000000 -39.892732 0.000000
			CHANNELS 3 Xrotation Yrotation Zrotation
			JOINT RightFoot
			{
				OFFSET 0.000000 -39.163422 0.000000
				CHANNELS 3 Xrotation Yrotation Zrotation
				JOINT RightToeBase
				{
					OFFSET 0.000000 -3.899992 14.555038
					CHANNELS 3 Xrotation Yrotation Zrotation
					End Site
					{
						OFFSET 0.000000 0.000000 7.499985
					}
				}
			}
		}
	}
	JOINT Spine
	{
		OFFSET 0.000000 0.100000 0.000000
		CHANNELS 3 Xrotation Yrotation Zrotation
		JOINT Spine1
		{
			OFFSET 0.000000 26.030657 0.000000
			CHANNELS 3 Xrotation Yrotation Zrotation
			JOINT Neck
			{
				OFFSET 0.000000 19.880250 0.000000
				CHANNELS 3 Xrotation Yrotation Zrotation
				JOINT Head
				{
					OFFSET 0.000000 17.544161 0.000000
					CHANNELS 3 Xrotation Yrotation Zrotation
					End Site
					{
						OFFSET 0.000000 11.499977 0.000000
					}
				}
			}
			JOINT LeftShoulder
			{
				OFFSET 0.000000 19.880250 0.000000
				CHANNELS 3 Xrotation Yrotation Zrotation
				JOINT LeftArm
				{
					OFFSET 17.043857 -0.000051 0.000000
					CHANNELS 3 Xrotation Yrotation Zrotation
					JOINT LeftForeArm
					{
						OFFSET 27.798243 -0.000102 0.000000
						CHANNELS 3 Xrotation Yrotation Zrotation
						JOINT LeftHand
						{
							OFFSET 21.641054 -0.000076 0.000000
							CHANNELS 3 Xrotation Yrotation Zrotation
							End Site
							{
								OFFSET 9.999980 -0.000025 0.000000
							}
						}
					}
				}
			}
			JOINT RightShoulder
			{
				OFFSET 0.000000 19.880250 0.000000
				CHANNELS 3 Xrotation Yrotation Zrotation
				JOINT RightArm
				{
					OFFSET -17.043857 -0.000051 0.000000
					CHANNELS 3 Xrotation Yrotation Zrotation
					JOINT RightForeArm
					{
						OFFSET -27.798243 -0.000102 0.000000
						CHANNELS 3 Xrotation Yrotation Zrotation
						JOINT RightHand
						{
							OFFSET -21.641054 -0.000076 0.000000
							CHANNELS 3 Xrotation Yrotation Zrotation
							End Site
							{
								OFFSET -13.699973 -0.000051 0.000000
							}
						}
					}
				}
			}
		}
	}
}
MOTION
Frames: 15
Frame Time: 0.033333
-6.967728 91.674442 7.157212 -6.241100 5.690800 4.007800 -5.863900 -2.838000 -3.731900 38.253600 0.000000 0.000000 -5.687300 -13.227400 2.912800 -11.239000 0.000000 0.000000 -4.993000 2.660200 -0.958700 36.505900 0.000000 0.000000 -10.040600 6.113200 -17.971700 0.798300 0.000000 0.000000 -5.768900 1.834900 -0.239900 9.358400 -0.044700 -0.248300 -1.144300 -5.984500 -2.441200 -2.794900 0.989500 2.938700 19.716700 15.639800 -3.519300 -27.115000 20.197500 -63.665600 -0.000600 -70.773400 -0.000400 -25.812700 -27.957000 17.755900 14.179300 -21.067000 3.955200 -26.404800 -20.887200 58.425800 -0.001100 79.533100 0.000900 -15.163600 26.251400 -37.737600 
-7.218426 85.340444 6.228080 -6.608500 4.463500 4.044000 -9.708200 -7.447900 -3.770800 43.098600 0.000000 0.000000 -3.466300 -17.420100 0.707000 -10.533400 0.000000 0.000000 -7.627200 7.090800 0.318400 40.537300 0.000000 0.000000 -15.628900 10.750300 -21.051900 2.520600 0.000000 0.000000 -4.229500 2.270100 -0.625100 9.200900 0.509800 -0.033400 -1.839300 -5.852400 -2.955400 -5.849700 0.928600 2.805500 19.585700 14.869400 -4.184400 -32.891500 15.732500 -61.124200 -0.001400 -81.297000 -0.001200 -18.301300 -19.917800 12.622500 13.560500 -19.246300 4.217300 -31.046100 -13.411400 56.287600 -0.003100 86.089200 0.002900 -8.159200 22.253100 -39.075600 
-7.613650 78.447392 5.076444 -7.501800 3.320800 3.258400 -14.497700 -10.007600 -2.559800 55.237300 0.000000 0.000000 -22.230500 -21.890200 -5.299600 -13.285900 0.000000 0.000000 -11.578000 7.630800 2.536400 52.448800 0.000000 0.000000 -30.924000 12.344300 -39.234500 -2.924700 0.000000 0.000000 -1.232600 3.047400 -0.383500 8.798900 1.254900 -0.049300 -3.167400 -6.350700 -2.974800 -11.121400 0.523700 2.440100 20.107100 14.628600 -4.031200 -40.112700 7.712900 -58.396000 -0.007200 -88.318500 -0.007000 -7.142900 -9.643400 5.385500 14.211600 -18.602900 4.313100 -36.209800 -4.422600 54.643000 -0.003000 86.014700 0.002800 4.458800 17.739600 -40.406800 
-7.977632 74.956162 3.019806 -3.170700 2.658100 1.657700 -21.797200 -8.585300 -0.995700 60.904300 0.000000 0.000000 -32.117400 -19.488800 -7.696300 -10.102700 0.000000 0.000000 -19.868800 6.159900 5.263900 58.093000 0.000000 0.000000 -38.196900 8.612000 -41.407600 -1.425300 0.000000 0.000000 -2.189900 3.760600 0.099200 7.150700 1.867000 0.353000 -5.914900 -7.008800 -2.707300 -12.203100 0.887300 1.530100 19.798600 14.244100 -2.840500 -41.536000 -1.030700 -58.372800 -179.987700 -89.022800 -179.987400 5.980800 0.598500 -2.156000 14.407800 -18.310400 4.125400 -37.683900 6.142200 54.207300 -0.000800 75.251400 0.000600 12.725600 13.576400 -41.798800 
-7.852918 77.336396 1.667764 -2.891600 3.754500 2.410000 -20.835100 -6.244100 -2.311400 55.642200 0.000000 0.000000 -25.244300 -15.843600 -3.123400 -12.257300 0.000000 0.000000 -19.908100 4.236700 3.119600 54.774400 0.000000 0.000000 -32.026500 9.193600 -38.197300 -4.434300 0.000000 0.000000 -1.941000 2.830400 -0.659800 7.638200 0.940100 0.637500 -6.959600 -6.814900 -3.163100 -12.962100 1.151400 2.072800 20.882600 12.761400 -3.151000 -37.323500 -9.651600 -59.879200 -0.002100 -84.273000 -0.001900 14.034300 6.798000 -1.713900 14.184500 -16.166000 4.455200 -33.763100 17.170900 54.425800 -0.000300 56.254000 0.000200 0.793800 8.565600 -32.212000 
-7.790942 83.715606 1.097788 -3.623100 6.986600 2.046900 -14.072200 -8.428700 -1.913200 39.728100 0.000000 0.000000 -8.325700 -16.490200 -1.755200 -16.290500 0.000000 0.000000 -10.373300 1.886000 1.274100 35.534400 0.000000 0.000000 -20.910700 10.394400 -22.672800 1.508600 0.000000 0.000000 -2.539600 2.333900 -0.388900 8.358000 0.457300 1.077900 -6.410100 -7.883000 -3.142600 -10.660400 -0.193000 2.388400 20.549500 11.387500 -3.216900 -33.319400 -21.562600 -63.949500 -0.000400 -63.046100 -0.000300 16.820900 9.680400 -1.291000 14.517800 -15.192300 5.389100 -28.414900 24.447900 57.011400 -0.000100 32.001600 0.000000 -6.972300 0.171300 -16.631600 
-7.700010 90.853768 0.170688 -3.153100 8.596900 2.091600 -9.671200 -9.344300 -1.930800 24.943600 0.000000 0.000000 12.880700 -12.576300 -7.657100 -18.677000 0.000000 0.000000 -4.790200 4.469100 0.564600 19.908000 0.000000 0.000000 -0.978000 5.667000 -13.050900 1.441000 0.000000 0.000000 -2.931400 2.742000 -0.191600 6.802500 0.802100 0.788700 -6.507300 -8.590300 -2.547000 -4.407000 -0.995700 1.265200 18.558900 10.402000 -1.996100 -31.848700 -26.843100 -71.368000 -0.000100 -35.355100 0.000000 7.656400 7.929500 -4.465200 12.779200 -14.635700 5.572800 -22.223200 27.103200 62.044100 0.000000 10.317800 0.000000 -11.606000 -3.718400 -5.543500 
-7.668768 96.433132 -1.586992 -3.245400 9.699000 2.366900 -11.724200 -3.756900 -2.873900 31.360800 0.000000 0.000000 9.272300 -11.051900 -4.905100 -14.843100 0.000000 0.000000 -7.823000 -0.487200 -0.217600 28.638700 0.000000 0.000000 -0.650900 8.623500 -17.331300 -2.407700 0.000000 0.000000 -1.687100 2.523800 -0.135100 6.521400 0.552300 0.958500 -7.495600 -8.712700 -3.680900 -4.494800 -1.480200 2.989800 17.558100 8.387200 -2.238400 -33.292400 -17.511200 -76.411600 -0.000100 -14.151200 0.000000 -4.785300 6.040500 -5.818400 12.145500 -13.892400 5.620200 -22.200300 14.458600 67.182200 0.000000 3.679900 0.000000 -19.733800 -9.868100 -1.653100 
-7.803388 100.070158 -3.701288 -3.751400 11.479700 2.827700 -17.176200 -1.142300 -4.532300 49.334200 0.000000 0.000000 0.926100 -12.231100 -1.817800 -9.959900 0.000000 0.000000 -14.431800 0.035100 0.520200 50.146400 0.000000 0.000000 -9.887900 8.146400 -11.103800 2.759200 0.000000 0.000000 -1.003800 1.746900 -0.665300 8.731100 -0.230900 1.433200 -7.412800 -8.500000 -3.701800 -8.415400 -2.186200 3.683200 17.109100 7.170300 -1.135700 -35.589000 -5.047000 -78.676600 0.000000 -0.472300 0.000000 -24.652600 5.680500 -0.802500 14.288100 -13.116900 5.922300 -24.864300 2.465400 69.044800 0.000000 1.308900 0.000000 -31.442200 -8.343700 -4.772400 
-7.850378 102.326948 -4.650232 -5.107100 13.325300 3.730500 -17.804600 -1.449400 -5.898800 59.329900 0.000000 0.000000 -7.200300 -13.699300 1.517800 -13.017700 0.000000 0.000000 -17.243600 -0.052000 0.575700 67.745100 0.000000 0.000000 -19.059400 7.261800 -18.867400 3.078100 0.000000 0.000000 -0.713100 0.916600 -0.928100 9.679800 -1.220100 0.679500 -5.931600 -8.529800 -1.978000 -8.429200 -1.642500 1.021400 18.977800 8.486100 0.256500 -36.972800 12.237600 -78.177200 0.000000 2.086700 0.000000 -45.752900 -0.375600 4.249200 15.459900 -15.375000 5.418600 -25.428800 -9.237700 70.561700 0.000000 3.155500 0.000000 -47.193400 -1.226900 -13.036200 
-7.862316 104.105964 -5.189728 -5.002600 13.167300 3.558500 -16.379400 1.243900 -4.414500 62.335500 0.000000 0.000000 -13.991300 -11.649100 2.699900 -11.490500 0.000000 0.000000 -16.862400 0.359600 0.546800 74.652900 0.000000 0.000000 -27.677700 6.835700 -16.871000 0.416400 0.000000 0.000000 -1.463200 0.898400 -0.813600 8.544400 -1.308000 0.580400 -3.869800 -8.683000 -1.804200 -7.206400 -0.854400 1.065700 20.057600 11.252600 -0.652500 -35.071300 23.890400 -76.314500 0.000000 -5.531900 0.000000 -51.206700 -9.148000 9.209400 15.260200 -17.927100 4.652000 -25.310700 -25.035300 69.641300 0.000000 11.450500 0.000000 -59.867800 9.231800 -18.397600 
-7.813548 105.280968 -5.698744 -5.061600 12.674100 3.195100 -13.285400 3.413100 -2.852900 59.927600 0.000000 0.000000 -15.617700 -10.784800 5.887100 -15.727500 0.000000 0.000000 -13.729800 0.562000 0.624800 73.186500 0.000000 0.000000 -28.941200 7.975900 -21.850700 -3.873500 0.000000 0.000000 -2.921800 1.347700 -0.583500 8.899300 -0.861800 0.690700 -2.784200 -8.934500 -2.177100 -5.883900 -0.988900 2.514700 20.376700 12.996100 -1.404500 -32.585800 25.539500 -74.299100 -0.000100 -14.381100 0.000000 -59.437200 -19.504000 10.803000 15.056100 -19.728800 4.539500 -25.234900 -31.090400 67.135800 -0.000100 20.708600 0.000000 -66.568300 20.621300 -24.726500 
-7.673340 105.266744 -6.430264 -4.929000 12.834600 3.329500 -10.426000 3.602700 -2.675200 55.890900 0.000000 0.000000 -14.055500 -9.457300 7.478500 -18.415000 0.000000 0.000000 -10.304500 0.303800 0.011800 68.392700 0.000000 0.000000 -28.168900 7.335800 -23.664600 -6.865400 0.000000 0.000000 -3.963400 1.694300 -0.703800 8.637800 -0.513000 0.566600 -2.209300 -9.157700 -2.143000 -4.318800 -1.349600 2.908700 21.039700 14.348900 -1.744300 -31.062800 25.108800 -72.460300 -0.000100 -26.026600 0.000000 -64.890700 -30.166700 15.570500 15.617800 -20.805600 4.363600 -24.407900 -30.852400 64.560800 -0.000100 30.519200 0.000000 -62.953600 30.917800 -32.806000 
-7.709408 104.007666 -7.338314 -4.499400 13.332200 3.334600 -8.354100 2.735800 -2.418200 51.574100 0.000000 0.000000 -11.776500 -9.376100 6.597200 -20.040100 0.000000 0.000000 -7.362800 -0.682400 -0.567600 61.810100 0.000000 0.000000 -25.537300 5.953900 -23.320800 -8.932900 0.000000 0.000000 -4.787800 1.823200 -0.918500 8.123500 -0.386600 0.338800 -1.682200 -9.370400 -1.920700 -3.708100 -1.690900 3.110400 20.994200 15.381800 -1.701600 -29.394200 23.122800 -70.106400 -0.000200 -39.355800 -0.000100 -57.359500 -30.919500 17.550700 16.055700 -21.384100 4.421100 -22.986600 -29.308400 62.347700 -0.000200 44.310900 0.000100 -54.866700 34.246400 -37.025700 
-7.881620 101.591364 -8.476996 -3.772900 13.799700 3.112000 -7.102500 1.207800 -1.948900 47.320300 0.000000 0.000000 -9.993600 -10.201200 5.150800 -20.989700 0.000000 0.000000 -4.776700 -1.861900 -0.798100 53.037800 0.000000 0.000000 -22.951200 5.187700 -22.444900 -10.575400 0.000000 0.000000 -5.442300 1.859500 -1.098000 7.403900 -0.365400 0.124100 -1.173600 -9.494700 -1.756300 -3.573200 -1.820200 3.064500 20.642000 15.868200 -1.420300 -28.292200 20.629300 -67.812100 -0.000300 -53.090900 -0.000100 -47.017900 -33.619600 20.442000 15.387700 -22.079900 3.944700 -22.325500 -27.737800 61.164000 -0.000300 58.253800 0.000200 -43.150100 33.991700 -40.585300 
